<svg xmlns="http://www.w3.org/2000/svg" xmlns:xlink="http://www.w3.org/1999/xlink" viewBox="0 0 12915.09 12898.18"><defs><style>.cls-1{fill:none;}.cls-2{fill:#e58f26;}.cls-3{clip-path:url(#clip-path);}.cls-4{fill:#88459a;}</style><clipPath id="clip-path" transform="translate(1068.35 3330.47)"><rect class="cls-1" width="10778.4" height="6237.23"/></clipPath></defs><title>bg</title><g id="Layer_2" data-name="Layer 2"><g id="Layer_1-2" data-name="Layer 1"><rect class="cls-2" x="1068.35" y="3330.47" width="10778.4" height="6237.23"/><rect class="cls-2" x="1068.35" y="3330.47" width="10778.4" height="6237.23"/><g class="cls-3"><path class="cls-4" d="M5389.19,9567.71c-158.09,0-318-5.85-475.41-17.38l471.06-6426.56-.28.47.3-.74.37-5.18,3-3.78-.08-.14-2.68.4.18-2.4-.56,2.46-2.5.38L658.78,7506A6491.83,6491.83,0,0,1,57.63,6754.1L5374.92,3116.39l-4.31.65,6.14-1.9,6.86-4.69-.19-.09-14.28,6.9L-996.34,4074.82a6505.07,6505.07,0,0,1-72-958.19L5383,3110.16l-15-7.24L-998.26,2158.4a6458.06,6458.06,0,0,1,213.52-943.9L5365.63,3101.8-431.63,312.38A6474.1,6474.1,0,0,1,51.07-524.18L5374.89,3104l-4.35-.65,6.18,1.9,7.21,4.91-.08,0h3.23c-.23-.59-.43-1-.55-1.29l-2,1,.95-.65c-.34,0-.5,0-.51,0l.59-.1.1-.08v.11a.8.8,0,0,1,.32-.13l.43-.49-.66-.59,1.91.59c.12-.38.22-.73.3-1l.52.24.49-.61.34.87.19-.76.41.51c.22-.09.41-.18.56-.26.09.33.19.7.31,1.09l1.92-.59-.63.59.47.31,0,.16.17,0v.08l.22,0,.55.1-.47,0,.51.35-.76-.37h0l-.74-.38a18.69,18.69,0,0,0-.85,2.08l-.54-.49a19.21,19.21,0,0,0,1.31-1.58l-1.26,1.18-.26-.27v1.54h.62c-.06.17-.11.33-.16.49l-.46.15v.72c.44.34.7.49.7.5l1.93.1.12,1.57-2.93-.43,0,.22,3.17,4,.41,5.48v0l478.1,6425.78C5712.11,9561.69,5549.73,9567.71,5389.19,9567.71Zm-.07-6455.41.3.76.57-.7.26.2c0-.2,0-.43,0-.67q-.56.18-1.08.39c-.34-.14-.7-.27-1.07-.39,0,.23,0,.45,0,.66l.25-.19.56.69.29-.76Zm-2.77-.54-.67.63,2-.61a.09.09,0,0,0,0-.05l-.95-.27-.33.3,0,0Zm1.75-.51c.73,0,1.53,0,2.18,0,0-.33,0-.7,0-1.09v-.45c-.4-.42-.78-.78-1.11-1.07-.45.41-.9.85-1.32,1.3l-1.44-1.32a19,19,0,0,0,1.24,1.53h.42C5388.09,3110.55,5388.1,3110.91,5388.1,3111.25Zm-1.16,0,.53,0c0-.14-.09-.27-.13-.4ZM3959.12,9408.09a6453.56,6453.56,0,0,1-926.5-284.8l2348.2-5989.51Zm2867.2-1.6L5398,3134.84l2354,5986A6454.78,6454.78,0,0,1,6826.32,9406.49ZM2161,8703.49a6484.89,6484.89,0,0,1-796.51-543.27L5384,3119.9l-2,8.84Zm6461.25-2.78L5396.68,3129.1l-2-8.91,4023.18,5036.9A6485.77,6485.77,0,0,1,8622.22,8700.71ZM10123,7502.38,5395.67,3115.16l-2.24-.33-.37-1.63h.49l-.66-.75,2.42.75,3.47,0,2.88,2,5.74,1.77-4-.6,5320.32,3633.49A6495.62,6495.62,0,0,1,10123,7502.38ZM-426.21,5919.17a6456.18,6456.18,0,0,1-354.71-900.94L5367.81,3117.91Zm11633.39-5.34L5411.11,3118.06,11561.25,5012A6457.76,6457.76,0,0,1,11207.18,5913.83Zm568.52-1845.47L5409.34,3117.21l-8.36-4,6445.75-19v15.94A6506.59,6506.59,0,0,1,11775.7,4068.36ZM5392.88,3112.58l-.21-.2Zm0-.24-.25-1.1-.6.14-.15.07s-.09,0-.18,0l-.25-.25.82,0,1.8-1.23.38.26-2,1,.34,0Zm1.77-2.23-.47-.23,6.22-4.28,8.09-2.5-5.68.86,5314.36-3643a6476.89,6476.89,0,0,1,484.66,834.44L5410.2,3102.57l6147.19-1906.68a6460.29,6460.29,0,0,1,216.4,943.33L5409.37,3103Zm-1.89-2.17.17-2.48-2.8.42v-.21l3.07-3.84.57-5.5-.2.34,464.62-6427.14A6476.13,6476.13,0,0,1,6813-3189.19L5397.54,3086.61l2342.2-5991.93a6465.41,6465.41,0,0,1,872.07,418.91L5396.39,3091.75l-1.91,8.44L9409-1943.84a6497.89,6497.89,0,0,1,706.25,653.46L5395.9,3105l-2.59.39Zm-7.26-1-.34-1.49-2.5-.38L651.07-1277.36a6496.39,6496.39,0,0,1,704.43-655.37L5384,3100.38l-2-8.73L2150.59-2477.17a6465.26,6465.26,0,0,1,869.82-421L5380.78,3086.41,3945.62-3184.7A6475.08,6475.08,0,0,1,4900.12-3329l484.55,6425.28,0,0v0l.41,5.47,3.21,4-.08.15-2.85-.43Z" transform="translate(1068.35 3330.47)"/></g></g></g></svg>