<svg xmlns="http://www.w3.org/2000/svg" xmlns:xlink="http://www.w3.org/1999/xlink" viewBox="0 0 2972.03 2968.14"><defs><style>.cls-1{fill:none;}.cls-2{fill:#e58f26;}.cls-3{clip-path:url(#clip-path);}.cls-4{fill:#88459a;}</style><clipPath id="clip-path" transform="translate(429.32 469.77)"><rect class="cls-1" width="2113.39" height="2113.39"/></clipPath></defs><title>bg</title><g id="Layer_2" data-name="Layer 2"><g id="Layer_1-2" data-name="Layer 1"><rect class="cls-2" x="429.32" y="469.77" width="2113.39" height="2113.39"/><g class="cls-3"><path class="cls-4" d="M1056.69,2498.37c-36.38,0-73.19-1.34-109.4-4l108.4-1478.88-.06.11.06-.17.09-1.2.69-.87v0l-.62.1,0-.56-.13.57-.57.09L-31.88,2023.93a1494.34,1494.34,0,0,1-138.33-173l1223.62-837.11-1,.15,1.42-.44,1.58-1.08-.05,0-3.28,1.59L-412.75,1234.34a1495.53,1495.53,0,0,1-16.57-220.49l1484.59-1.49-3.46-1.67-1465-217.35a1486.68,1486.68,0,0,1,49.14-217.21l1415.33,434.3L-282.8,368.53A1489.57,1489.57,0,0,1-171.72,176L1053.4,1010.93l-1-.15,1.42.44,1.66,1.13h.73l-.13-.3-.47.22.22-.15h-.11l.13,0,0,0v0l.08,0,.1-.11-.16-.14.44.14c0-.09.05-.17.07-.24l.12,0,.12-.14.08.2,0-.17.09.12.13-.06c0,.07,0,.16.07.25l.44-.14-.14.14.11.07v0h0v0h0l.13,0h-.11l.12.08-.17-.08h0l-.18-.09c-.06.14-.13.31-.19.48l-.12-.11c.14-.16.24-.29.3-.37l-.29.28-.06-.07v.36h.14s0,.07,0,.11l-.1,0v.17a1,1,0,0,0,.16.11l.44,0,0,.36-.67-.1v0l.73.91.1,1.26h0l110,1478.7C1131,2497,1093.64,2498.37,1056.69,2498.37Zm0-1485.52.06.18.13-.17s.05,0,.06,0a.76.76,0,0,0,0-.15l-.25.08-.24-.08v.15l.06,0,.13.16.06-.17Zm-.64-.12-.16.14.45-.14h0l-.22-.06-.07.07Zm.4-.12h.5c0-.08,0-.16,0-.25v-.11l-.26-.24a2.83,2.83,0,0,0-.3.3l-.33-.31a4.21,4.21,0,0,0,.28.36h.1Zm-.27,0h.13l0-.09Zm-328.57,1449a1484.75,1484.75,0,0,1-213.2-65.54l540.36-1378.31Zm659.8-.37L1058.72,1018l541.7,1377.5A1483.6,1483.6,0,0,1,1387.4,2461.27ZM313.81,2299.5a1492.3,1492.3,0,0,1-183.29-125l925-1159.88-.46,2Zm1486.87-.64L1058.41,1016.72l-.46-2.05,925.82,1159.09A1492.58,1492.58,0,0,1,1800.68,2298.86ZM2146,2023.1,1058.18,1013.51l-.51-.08-.09-.37h.11l-.15-.18.56.18h.8l.66.46,1.32.4-.93-.14,1224.32,836.15A1494.73,1494.73,0,0,1,2146,2023.1ZM-281.55,1658.77a1485.44,1485.44,0,0,1-81.63-207.33l1415-437.3Zm2677.08-1.23L1061.74,1014.17,2477,1450A1486.07,1486.07,0,0,1,2395.53,1657.54Zm130.83-424.68L1061.33,1014l-1.92-.93,1483.29-4.36v3.67A1497.05,1497.05,0,0,1,2526.36,1232.86ZM1057.54,1012.91l0,0Zm0,0-.06-.26-.14,0h-.08l0-.06h.19l.41-.28.09.06-.46.22h.08Zm.4-.51-.11-.06,1.44-1,1.86-.58-1.31.2,1223-838.33a1491.41,1491.41,0,0,1,111.53,192l-1332.78,646,1414.6-438.77a1485.62,1485.62,0,0,1,49.8,217.08L1061.33,1010.7Zm-.43-.5,0-.57-.65.09v0l.71-.88.13-1.27,0,.08,106.92-1479a1490.82,1490.82,0,0,1,219.72,32.52L1058.61,1006.94l539-1378.87a1487.8,1487.8,0,0,1,200.68,96.4L1058.35,1008.12l-.44,1.94L1981.73-150.67A1496.53,1496.53,0,0,1,2144.25-.3l-1086,1011.47-.59.09Zm-1.67-.23-.08-.34-.58-.09L-33.65,2.7a1495.81,1495.81,0,0,1,162.1-150.82l927,1158.23-.46-2L311.42-273.4a1486.35,1486.35,0,0,1,200.17-96.88l543.16,1377.17L724.5-436.22a1490.58,1490.58,0,0,1,219.65-33.21l111.5,1478.6h0l.1,1.26.74.92,0,0-.66-.09Z" transform="translate(429.32 469.77)"/></g></g></g></svg>